<svg width="108" height="19" viewBox="0 0 108 19" fill="none" xmlns="http://www.w3.org/2000/svg">
<path d="M4.65 14.7H8.15C8.71667 14.7 9.26667 14.6083 9.8 14.425C10.3333 14.2417 10.8083 13.9417 11.225 13.525C11.6417 13.0917 11.975 12.5333 12.225 11.85C12.475 11.1667 12.6 10.3333 12.6 9.35C12.6 8.45 12.5083 7.64167 12.325 6.925C12.1583 6.19167 11.875 5.56667 11.475 5.05C11.075 4.53333 10.5417 4.14167 9.875 3.875C9.225 3.59167 8.41667 3.45 7.45 3.45H4.65V14.7ZM0.725 0.149999H8.425C9.575 0.149999 10.6417 0.333332 11.625 0.699999C12.625 1.06667 13.4833 1.61667 14.2 2.35C14.9333 3.08333 15.5 4 15.9 5.1C16.3167 6.2 16.525 7.49167 16.525 8.975C16.525 10.275 16.3583 11.475 16.025 12.575C15.6917 13.675 15.1833 14.625 14.5 15.425C13.8333 16.225 12.9917 16.8583 11.975 17.325C10.975 17.775 9.79167 18 8.425 18H0.725V0.149999ZM34.4053 11.25C34.4053 13.6667 33.7303 15.4667 32.3803 16.65C31.0303 17.8167 29.1636 18.4 26.7803 18.4C24.3636 18.4 22.4886 17.8167 21.1553 16.65C19.8386 15.4833 19.1803 13.6833 19.1803 11.25V0.149999H23.1053V11.25C23.1053 11.7333 23.1469 12.2083 23.2303 12.675C23.3136 13.1417 23.4886 13.5583 23.7553 13.925C24.0219 14.275 24.3886 14.5667 24.8553 14.8C25.3386 15.0167 25.9803 15.125 26.7803 15.125C28.1803 15.125 29.1469 14.8167 29.6803 14.2C30.2136 13.5667 30.4803 12.5833 30.4803 11.25V0.149999H34.4053V11.25ZM41.7105 7.375H45.6855C46.3855 7.375 46.9605 7.20833 47.4105 6.875C47.8605 6.54167 48.0855 6 48.0855 5.25C48.0855 4.83333 48.0105 4.49167 47.8605 4.225C47.7105 3.95833 47.5105 3.75 47.2605 3.6C47.0105 3.45 46.7189 3.35 46.3855 3.3C46.0689 3.23333 45.7355 3.2 45.3855 3.2H41.7105V7.375ZM37.7855 0.149999H46.1855C47.0355 0.149999 47.8105 0.224999 48.5105 0.374999C49.2105 0.524999 49.8105 0.774999 50.3105 1.125C50.8105 1.45833 51.1939 1.90833 51.4605 2.475C51.7439 3.04167 51.8855 3.74167 51.8855 4.575C51.8855 5.475 51.6772 6.225 51.2605 6.825C50.8605 7.425 50.2605 7.91667 49.4605 8.3C50.5605 8.61667 51.3772 9.175 51.9105 9.975C52.4605 10.7583 52.7355 11.7083 52.7355 12.825C52.7355 13.725 52.5605 14.5083 52.2105 15.175C51.8605 15.825 51.3855 16.3583 50.7855 16.775C50.2022 17.1917 49.5272 17.5 48.7605 17.7C48.0105 17.9 47.2355 18 46.4355 18H37.7855V0.149999ZM41.7105 14.95H45.9105C46.2939 14.95 46.6605 14.9167 47.0105 14.85C47.3605 14.7667 47.6689 14.6417 47.9355 14.475C48.2022 14.2917 48.4105 14.05 48.5605 13.75C48.7272 13.45 48.8105 13.0667 48.8105 12.6C48.8105 11.6833 48.5522 11.0333 48.0355 10.65C47.5189 10.25 46.8355 10.05 45.9855 10.05H41.7105V14.95ZM59.8881 11.1H64.5131L62.2631 4.55H62.2131L59.8881 11.1ZM60.2631 0.149999H64.2881L70.9631 18H66.8881L65.5381 14.025H58.8631L57.4631 18H53.5131L60.2631 0.149999ZM72.5023 0.149999H76.4273V18H72.5023V0.149999ZM91.3334 11.1H95.9584L93.7084 4.55H93.6584L91.3334 11.1ZM91.7084 0.149999H95.7334L102.408 18H98.3334L96.9834 14.025H90.3084L88.9084 18H84.9584L91.7084 0.149999ZM103.948 0.149999H107.873V18H103.948V0.149999Z" fill="black"/>
</svg>
